<?xml version="1.0" encoding="UTF-8" standalone="no"?>
<!-- Created with Inkscape (http://www.inkscape.org/) -->
<svg
   xmlns:svg="http://www.w3.org/2000/svg"
   xmlns="http://www.w3.org/2000/svg"
   version="1.0"
   width="474.27997pt"
   height="363pt"
   id="svg2">
  <defs
     id="defs5" />
  <path
     d="M 184.97885,330.94063 A 27.5,27.5 0 1 1 184.99031,329.13229"
     transform="matrix(9.181518e-2,0,0,9.169656e-2,18.61884,2.114955)"
     style="fill:#000000;fill-opacity:1;fill-rule:evenodd;stroke:#000000;stroke-width:1px;stroke-linecap:butt;stroke-linejoin:miter;stroke-opacity:1"
     id="path1351" />
  <path
     d="M 184.97885,330.94063 A 27.5,27.5 0 1 1 184.99031,329.13229"
     transform="matrix(9.181518e-2,0,0,9.169656e-2,62.45306,2.114955)"
     style="fill:#000000;fill-opacity:1;fill-rule:evenodd;stroke:#000000;stroke-width:1px;stroke-linecap:butt;stroke-linejoin:miter;stroke-opacity:1"
     id="path2226" />
  <path
     d="M 184.97885,330.94063 A 27.5,27.5 0 1 1 184.99031,329.13229"
     transform="matrix(9.181518e-2,0,0,9.169656e-2,106.2873,2.114955)"
     style="fill:#000000;fill-opacity:1;fill-rule:evenodd;stroke:#000000;stroke-width:1px;stroke-linecap:butt;stroke-linejoin:miter;stroke-opacity:1"
     id="path2230" />
  <path
     d="M 184.97885,330.94063 A 27.5,27.5 0 1 1 184.99031,329.13229"
     transform="matrix(9.181518e-2,0,0,9.169656e-2,150.1214,2.114955)"
     style="fill:#000000;fill-opacity:1;fill-rule:evenodd;stroke:#000000;stroke-width:1px;stroke-linecap:butt;stroke-linejoin:miter;stroke-opacity:1"
     id="path2232" />
  <path
     d="M 184.97885,330.94063 A 27.5,27.5 0 1 1 184.99031,329.13229"
     transform="matrix(9.181518e-2,0,0,9.169656e-2,193.9556,2.114955)"
     style="fill:#000000;fill-opacity:1;fill-rule:evenodd;stroke:#000000;stroke-width:1px;stroke-linecap:butt;stroke-linejoin:miter;stroke-opacity:1"
     id="path2234" />
  <path
     d="M 184.97885,330.94063 A 27.5,27.5 0 1 1 184.99031,329.13229"
     transform="matrix(9.181518e-2,0,0,9.169656e-2,237.7898,2.114955)"
     style="fill:#000000;fill-opacity:1;fill-rule:evenodd;stroke:#000000;stroke-width:1px;stroke-linecap:butt;stroke-linejoin:miter;stroke-opacity:1"
     id="path2236" />
  <path
     d="M 184.97885,330.94063 A 27.5,27.5 0 1 1 184.99031,329.13229"
     transform="matrix(9.181518e-2,0,0,9.169656e-2,281.624,2.114955)"
     style="fill:#000000;fill-opacity:1;fill-rule:evenodd;stroke:#000000;stroke-width:1px;stroke-linecap:butt;stroke-linejoin:miter;stroke-opacity:1"
     id="path2238" />
  <path
     d="M 184.97885,330.94063 A 27.5,27.5 0 1 1 184.99031,329.13229"
     transform="matrix(9.181518e-2,0,0,9.169656e-2,325.4582,2.114955)"
     style="fill:#000000;fill-opacity:1;fill-rule:evenodd;stroke:#000000;stroke-width:1px;stroke-linecap:butt;stroke-linejoin:miter;stroke-opacity:1"
     id="path2240" />
  <path
     d="M 184.97885,330.94063 A 27.5,27.5 0 1 1 184.99031,329.13229"
     transform="matrix(9.181518e-2,0,0,9.169656e-2,369.2924,2.114955)"
     style="fill:#000000;fill-opacity:1;fill-rule:evenodd;stroke:#000000;stroke-width:1px;stroke-linecap:butt;stroke-linejoin:miter;stroke-opacity:1"
     id="path2242" />
  <path
     d="M 184.97885,330.94063 A 27.5,27.5 0 1 1 184.99031,329.13229"
     transform="matrix(9.181518e-2,0,0,9.169656e-2,413.1266,2.114955)"
     style="fill:#000000;fill-opacity:1;fill-rule:evenodd;stroke:#000000;stroke-width:1px;stroke-linecap:butt;stroke-linejoin:miter;stroke-opacity:1"
     id="path2244" />
  <path
     d="M 184.97885,330.94063 A 27.5,27.5 0 1 1 184.99031,329.13229"
     transform="matrix(9.181518e-2,0,0,9.169656e-2,456.9608,2.114955)"
     style="fill:#000000;fill-opacity:1;fill-rule:evenodd;stroke:#000000;stroke-width:1px;stroke-linecap:butt;stroke-linejoin:miter;stroke-opacity:1"
     id="path2246" />
  <path
     d="M 184.97885,330.94063 A 27.5,27.5 0 1 1 184.99031,329.13229"
     transform="matrix(9.181518e-2,0,0,9.169656e-2,500.7949,2.114955)"
     style="fill:#000000;fill-opacity:1;fill-rule:evenodd;stroke:#000000;stroke-width:1px;stroke-linecap:butt;stroke-linejoin:miter;stroke-opacity:1"
     id="path2248" />
  <path
     d="M 184.97885,330.94063 A 27.5,27.5 0 1 1 184.99031,329.13229"
     transform="matrix(9.181518e-2,0,0,9.169656e-2,544.6291,2.114955)"
     style="fill:#000000;fill-opacity:1;fill-rule:evenodd;stroke:#000000;stroke-width:1px;stroke-linecap:butt;stroke-linejoin:miter;stroke-opacity:1"
     id="path2250" />
  <path
     d="M 184.97885,330.94063 A 27.5,27.5 0 1 1 184.99031,329.13229"
     transform="matrix(9.181518e-2,0,0,9.169656e-2,18.61884,45.94916)"
     style="fill:#000000;fill-opacity:1;fill-rule:evenodd;stroke:#000000;stroke-width:1px;stroke-linecap:butt;stroke-linejoin:miter;stroke-opacity:1"
     id="path2252" />
  <path
     d="M 184.97885,330.94063 A 27.5,27.5 0 1 1 184.99031,329.13229"
     transform="matrix(9.181518e-2,0,0,9.169656e-2,62.45306,45.94916)"
     style="fill:#000000;fill-opacity:1;fill-rule:evenodd;stroke:#000000;stroke-width:1px;stroke-linecap:butt;stroke-linejoin:miter;stroke-opacity:1"
     id="path2254" />
  <path
     d="M 184.97885,330.94063 A 27.5,27.5 0 1 1 184.99031,329.13229"
     transform="matrix(9.181518e-2,0,0,9.169656e-2,106.2873,45.94916)"
     style="fill:#000000;fill-opacity:1;fill-rule:evenodd;stroke:#000000;stroke-width:1px;stroke-linecap:butt;stroke-linejoin:miter;stroke-opacity:1"
     id="path2256" />
  <path
     d="M 184.97885,330.94063 A 27.5,27.5 0 1 1 184.99031,329.13229"
     transform="matrix(9.181518e-2,0,0,9.169656e-2,150.1214,45.94916)"
     style="fill:#000000;fill-opacity:1;fill-rule:evenodd;stroke:#000000;stroke-width:1px;stroke-linecap:butt;stroke-linejoin:miter;stroke-opacity:1"
     id="path2258" />
  <path
     d="M 184.97885,330.94063 A 27.5,27.5 0 1 1 184.99031,329.13229"
     transform="matrix(9.181518e-2,0,0,9.169656e-2,193.9556,45.94916)"
     style="fill:#000000;fill-opacity:1;fill-rule:evenodd;stroke:#000000;stroke-width:1px;stroke-linecap:butt;stroke-linejoin:miter;stroke-opacity:1"
     id="path2260" />
  <path
     d="M 184.97885,330.94063 A 27.5,27.5 0 1 1 184.99031,329.13229"
     transform="matrix(9.181518e-2,0,0,9.169656e-2,237.7898,45.94916)"
     style="fill:#000000;fill-opacity:1;fill-rule:evenodd;stroke:#000000;stroke-width:1px;stroke-linecap:butt;stroke-linejoin:miter;stroke-opacity:1"
     id="path2262" />
  <path
     d="M 184.97885,330.94063 A 27.5,27.5 0 1 1 184.99031,329.13229"
     transform="matrix(9.181518e-2,0,0,9.169656e-2,281.624,45.94916)"
     style="fill:#000000;fill-opacity:1;fill-rule:evenodd;stroke:#000000;stroke-width:1px;stroke-linecap:butt;stroke-linejoin:miter;stroke-opacity:1"
     id="path2264" />
  <path
     d="M 184.97885,330.94063 A 27.5,27.5 0 1 1 184.99031,329.13229"
     transform="matrix(9.181518e-2,0,0,9.169656e-2,325.4582,45.94916)"
     style="fill:#000000;fill-opacity:1;fill-rule:evenodd;stroke:#000000;stroke-width:1px;stroke-linecap:butt;stroke-linejoin:miter;stroke-opacity:1"
     id="path2266" />
  <path
     d="M 184.97885,330.94063 A 27.5,27.5 0 1 1 184.99031,329.13229"
     transform="matrix(9.181518e-2,0,0,9.169656e-2,369.2924,45.94916)"
     style="fill:#000000;fill-opacity:1;fill-rule:evenodd;stroke:#000000;stroke-width:1px;stroke-linecap:butt;stroke-linejoin:miter;stroke-opacity:1"
     id="path2268" />
  <path
     d="M 184.97885,330.94063 A 27.5,27.5 0 1 1 184.99031,329.13229"
     transform="matrix(9.181518e-2,0,0,9.169656e-2,413.1266,45.94916)"
     style="fill:#000000;fill-opacity:1;fill-rule:evenodd;stroke:#000000;stroke-width:1px;stroke-linecap:butt;stroke-linejoin:miter;stroke-opacity:1"
     id="path2270" />
  <path
     d="M 184.97885,330.94063 A 27.5,27.5 0 1 1 184.99031,329.13229"
     transform="matrix(9.181518e-2,0,0,9.169656e-2,456.9608,45.94916)"
     style="fill:#000000;fill-opacity:1;fill-rule:evenodd;stroke:#000000;stroke-width:1px;stroke-linecap:butt;stroke-linejoin:miter;stroke-opacity:1"
     id="path2272" />
  <path
     d="M 184.97885,330.94063 A 27.5,27.5 0 1 1 184.99031,329.13229"
     transform="matrix(9.181518e-2,0,0,9.169656e-2,500.7949,45.94916)"
     style="fill:#000000;fill-opacity:1;fill-rule:evenodd;stroke:#000000;stroke-width:1px;stroke-linecap:butt;stroke-linejoin:miter;stroke-opacity:1"
     id="path2274" />
  <path
     d="M 184.97885,330.94063 A 27.5,27.5 0 1 1 184.99031,329.13229"
     transform="matrix(9.181518e-2,0,0,9.169656e-2,544.6291,45.94916)"
     style="fill:#000000;fill-opacity:1;fill-rule:evenodd;stroke:#000000;stroke-width:1px;stroke-linecap:butt;stroke-linejoin:miter;stroke-opacity:1"
     id="path2276" />
  <path
     d="M 184.97885,330.94063 A 27.5,27.5 0 1 1 184.99031,329.13229"
     transform="matrix(9.181518e-2,0,0,9.169656e-2,18.61884,89.78336)"
     style="fill:#000000;fill-opacity:1;fill-rule:evenodd;stroke:#000000;stroke-width:1px;stroke-linecap:butt;stroke-linejoin:miter;stroke-opacity:1"
     id="path2278" />
  <path
     d="M 184.97885,330.94063 A 27.5,27.5 0 1 1 184.99031,329.13229"
     transform="matrix(9.181518e-2,0,0,9.169656e-2,62.45306,89.78336)"
     style="fill:#000000;fill-opacity:1;fill-rule:evenodd;stroke:#000000;stroke-width:1px;stroke-linecap:butt;stroke-linejoin:miter;stroke-opacity:1"
     id="path2280" />
  <path
     d="M 184.97885,330.94063 A 27.5,27.5 0 1 1 184.99031,329.13229"
     transform="matrix(9.181518e-2,0,0,9.169656e-2,106.2873,89.78336)"
     style="fill:#000000;fill-opacity:1;fill-rule:evenodd;stroke:#000000;stroke-width:1px;stroke-linecap:butt;stroke-linejoin:miter;stroke-opacity:1"
     id="path2282" />
  <path
     d="M 184.97885,330.94063 A 27.5,27.5 0 1 1 184.99031,329.13229"
     transform="matrix(9.181518e-2,0,0,9.169656e-2,150.1214,89.78336)"
     style="fill:#000000;fill-opacity:1;fill-rule:evenodd;stroke:#000000;stroke-width:1px;stroke-linecap:butt;stroke-linejoin:miter;stroke-opacity:1"
     id="path2284" />
  <path
     d="M 184.97885,330.94063 A 27.5,27.5 0 1 1 184.99031,329.13229"
     transform="matrix(9.181518e-2,0,0,9.169656e-2,193.9556,89.78336)"
     style="fill:#000000;fill-opacity:1;fill-rule:evenodd;stroke:#000000;stroke-width:1px;stroke-linecap:butt;stroke-linejoin:miter;stroke-opacity:1"
     id="path2286" />
  <path
     d="M 184.97885,330.94063 A 27.5,27.5 0 1 1 184.99031,329.13229"
     transform="matrix(9.181518e-2,0,0,9.169656e-2,237.7898,89.78336)"
     style="fill:#000000;fill-opacity:1;fill-rule:evenodd;stroke:#000000;stroke-width:1px;stroke-linecap:butt;stroke-linejoin:miter;stroke-opacity:1"
     id="path2288" />
  <path
     d="M 184.97885,330.94063 A 27.5,27.5 0 1 1 184.99031,329.13229"
     transform="matrix(9.181518e-2,0,0,9.169656e-2,281.624,89.78336)"
     style="fill:#000000;fill-opacity:1;fill-rule:evenodd;stroke:#000000;stroke-width:1px;stroke-linecap:butt;stroke-linejoin:miter;stroke-opacity:1"
     id="path2290" />
  <path
     d="M 184.97885,330.94063 A 27.5,27.5 0 1 1 184.99031,329.13229"
     transform="matrix(9.181518e-2,0,0,9.169656e-2,325.4582,89.78336)"
     style="fill:#000000;fill-opacity:1;fill-rule:evenodd;stroke:#000000;stroke-width:1px;stroke-linecap:butt;stroke-linejoin:miter;stroke-opacity:1"
     id="path2292" />
  <path
     d="M 184.97885,330.94063 A 27.5,27.5 0 1 1 184.99031,329.13229"
     transform="matrix(9.181518e-2,0,0,9.169656e-2,369.2924,89.78336)"
     style="fill:#000000;fill-opacity:1;fill-rule:evenodd;stroke:#000000;stroke-width:1px;stroke-linecap:butt;stroke-linejoin:miter;stroke-opacity:1"
     id="path2294" />
  <path
     d="M 184.97885,330.94063 A 27.5,27.5 0 1 1 184.99031,329.13229"
     transform="matrix(9.181518e-2,0,0,9.169656e-2,413.1266,89.78336)"
     style="fill:#000000;fill-opacity:1;fill-rule:evenodd;stroke:#000000;stroke-width:1px;stroke-linecap:butt;stroke-linejoin:miter;stroke-opacity:1"
     id="path2296" />
  <path
     d="M 184.97885,330.94063 A 27.5,27.5 0 1 1 184.99031,329.13229"
     transform="matrix(9.181518e-2,0,0,9.169656e-2,456.9608,89.78336)"
     style="fill:#000000;fill-opacity:1;fill-rule:evenodd;stroke:#000000;stroke-width:1px;stroke-linecap:butt;stroke-linejoin:miter;stroke-opacity:1"
     id="path2298" />
  <path
     d="M 184.97885,330.94063 A 27.5,27.5 0 1 1 184.99031,329.13229"
     transform="matrix(9.181518e-2,0,0,9.169656e-2,500.7949,89.78336)"
     style="fill:#000000;fill-opacity:1;fill-rule:evenodd;stroke:#000000;stroke-width:1px;stroke-linecap:butt;stroke-linejoin:miter;stroke-opacity:1"
     id="path2300" />
  <path
     d="M 184.97885,330.94063 A 27.5,27.5 0 1 1 184.99031,329.13229"
     transform="matrix(9.181518e-2,0,0,9.169656e-2,544.6291,89.78336)"
     style="fill:#000000;fill-opacity:1;fill-rule:evenodd;stroke:#000000;stroke-width:1px;stroke-linecap:butt;stroke-linejoin:miter;stroke-opacity:1"
     id="path2302" />
  <path
     d="M 184.97885,330.94063 A 27.5,27.5 0 1 1 184.99031,329.13229"
     transform="matrix(9.181518e-2,0,0,9.169656e-2,18.61884,133.6175)"
     style="fill:#000000;fill-opacity:1;fill-rule:evenodd;stroke:#000000;stroke-width:1px;stroke-linecap:butt;stroke-linejoin:miter;stroke-opacity:1"
     id="path2304" />
  <path
     d="M 184.97885,330.94063 A 27.5,27.5 0 1 1 184.99031,329.13229"
     transform="matrix(9.181518e-2,0,0,9.169656e-2,62.45306,133.6175)"
     style="fill:#000000;fill-opacity:1;fill-rule:evenodd;stroke:#000000;stroke-width:1px;stroke-linecap:butt;stroke-linejoin:miter;stroke-opacity:1"
     id="path2306" />
  <path
     d="M 184.97885,330.94063 A 27.5,27.5 0 1 1 184.99031,329.13229"
     transform="matrix(9.181518e-2,0,0,9.169656e-2,106.2873,133.6175)"
     style="fill:#000000;fill-opacity:1;fill-rule:evenodd;stroke:#000000;stroke-width:1px;stroke-linecap:butt;stroke-linejoin:miter;stroke-opacity:1"
     id="path2308" />
  <path
     d="M 184.97885,330.94063 A 27.5,27.5 0 1 1 184.99031,329.13229"
     transform="matrix(9.181518e-2,0,0,9.169656e-2,150.1214,133.6175)"
     style="fill:#000000;fill-opacity:1;fill-rule:evenodd;stroke:#000000;stroke-width:1px;stroke-linecap:butt;stroke-linejoin:miter;stroke-opacity:1"
     id="path2310" />
  <path
     d="M 184.97885,330.94063 A 27.5,27.5 0 1 1 184.99031,329.13229"
     transform="matrix(9.181518e-2,0,0,9.169656e-2,193.9556,133.6175)"
     style="fill:#000000;fill-opacity:1;fill-rule:evenodd;stroke:#000000;stroke-width:1px;stroke-linecap:butt;stroke-linejoin:miter;stroke-opacity:1"
     id="path2312" />
  <path
     d="M 184.97885,330.94063 A 27.5,27.5 0 1 1 184.99031,329.13229"
     transform="matrix(9.181518e-2,0,0,9.169656e-2,237.7898,133.6175)"
     style="fill:#000000;fill-opacity:1;fill-rule:evenodd;stroke:#000000;stroke-width:1px;stroke-linecap:butt;stroke-linejoin:miter;stroke-opacity:1"
     id="path2314" />
  <path
     d="M 184.97885,330.94063 A 27.5,27.5 0 1 1 184.99031,329.13229"
     transform="matrix(9.181518e-2,0,0,9.169656e-2,281.624,133.6175)"
     style="fill:#000000;fill-opacity:1;fill-rule:evenodd;stroke:#000000;stroke-width:1px;stroke-linecap:butt;stroke-linejoin:miter;stroke-opacity:1"
     id="path2316" />
  <path
     d="M 184.97885,330.94063 A 27.5,27.5 0 1 1 184.99031,329.13229"
     transform="matrix(9.181518e-2,0,0,9.169656e-2,325.4582,133.6175)"
     style="fill:#000000;fill-opacity:1;fill-rule:evenodd;stroke:#000000;stroke-width:1px;stroke-linecap:butt;stroke-linejoin:miter;stroke-opacity:1"
     id="path2318" />
  <path
     d="M 184.97885,330.94063 A 27.5,27.5 0 1 1 184.99031,329.13229"
     transform="matrix(9.181518e-2,0,0,9.169656e-2,369.2924,133.6175)"
     style="fill:#000000;fill-opacity:1;fill-rule:evenodd;stroke:#000000;stroke-width:1px;stroke-linecap:butt;stroke-linejoin:miter;stroke-opacity:1"
     id="path2320" />
  <path
     d="M 184.97885,330.94063 A 27.5,27.5 0 1 1 184.99031,329.13229"
     transform="matrix(9.181518e-2,0,0,9.169656e-2,413.1266,133.6175)"
     style="fill:#000000;fill-opacity:1;fill-rule:evenodd;stroke:#000000;stroke-width:1px;stroke-linecap:butt;stroke-linejoin:miter;stroke-opacity:1"
     id="path2322" />
  <path
     d="M 184.97885,330.94063 A 27.5,27.5 0 1 1 184.99031,329.13229"
     transform="matrix(9.181518e-2,0,0,9.169656e-2,456.9608,133.6175)"
     style="fill:#000000;fill-opacity:1;fill-rule:evenodd;stroke:#000000;stroke-width:1px;stroke-linecap:butt;stroke-linejoin:miter;stroke-opacity:1"
     id="path2324" />
  <path
     d="M 184.97885,330.94063 A 27.5,27.5 0 1 1 184.99031,329.13229"
     transform="matrix(9.181518e-2,0,0,9.169656e-2,500.7949,133.6175)"
     style="fill:#000000;fill-opacity:1;fill-rule:evenodd;stroke:#000000;stroke-width:1px;stroke-linecap:butt;stroke-linejoin:miter;stroke-opacity:1"
     id="path2326" />
  <path
     d="M 184.97885,330.94063 A 27.5,27.5 0 1 1 184.99031,329.13229"
     transform="matrix(9.181518e-2,0,0,9.169656e-2,544.6291,133.6175)"
     style="fill:#000000;fill-opacity:1;fill-rule:evenodd;stroke:#000000;stroke-width:1px;stroke-linecap:butt;stroke-linejoin:miter;stroke-opacity:1"
     id="path2328" />
  <path
     d="M 184.97885,330.94063 A 27.5,27.5 0 1 1 184.99031,329.13229"
     transform="matrix(9.181518e-2,0,0,9.169656e-2,18.61884,177.4517)"
     style="fill:#000000;fill-opacity:1;fill-rule:evenodd;stroke:#000000;stroke-width:1px;stroke-linecap:butt;stroke-linejoin:miter;stroke-opacity:1"
     id="path2330" />
  <path
     d="M 184.97885,330.94063 A 27.5,27.5 0 1 1 184.99031,329.13229"
     transform="matrix(9.181518e-2,0,0,9.169656e-2,62.45306,177.4517)"
     style="fill:#000000;fill-opacity:1;fill-rule:evenodd;stroke:#000000;stroke-width:1px;stroke-linecap:butt;stroke-linejoin:miter;stroke-opacity:1"
     id="path2332" />
  <path
     d="M 184.97885,330.94063 A 27.5,27.5 0 1 1 184.99031,329.13229"
     transform="matrix(9.181518e-2,0,0,9.169656e-2,106.2873,177.4517)"
     style="fill:#000000;fill-opacity:1;fill-rule:evenodd;stroke:#000000;stroke-width:1px;stroke-linecap:butt;stroke-linejoin:miter;stroke-opacity:1"
     id="path2334" />
  <path
     d="M 184.97885,330.94063 A 27.5,27.5 0 1 1 184.99031,329.13229"
     transform="matrix(9.181518e-2,0,0,9.169656e-2,150.1214,177.4517)"
     style="fill:#000000;fill-opacity:1;fill-rule:evenodd;stroke:#000000;stroke-width:1px;stroke-linecap:butt;stroke-linejoin:miter;stroke-opacity:1"
     id="path2336" />
  <path
     d="M 184.97885,330.94063 A 27.5,27.5 0 1 1 184.99031,329.13229"
     transform="matrix(9.181518e-2,0,0,9.169656e-2,193.9556,177.4517)"
     style="fill:#000000;fill-opacity:1;fill-rule:evenodd;stroke:#000000;stroke-width:1px;stroke-linecap:butt;stroke-linejoin:miter;stroke-opacity:1"
     id="path2338" />
  <path
     d="M 184.97885,330.94063 A 27.5,27.5 0 1 1 184.99031,329.13229"
     transform="matrix(9.181518e-2,0,0,9.169656e-2,237.7898,177.4517)"
     style="fill:#000000;fill-opacity:1;fill-rule:evenodd;stroke:#000000;stroke-width:1px;stroke-linecap:butt;stroke-linejoin:miter;stroke-opacity:1"
     id="path2340" />
  <path
     d="M 184.97885,330.94063 A 27.5,27.5 0 1 1 184.99031,329.13229"
     transform="matrix(9.181518e-2,0,0,9.169656e-2,281.624,177.4517)"
     style="fill:#000000;fill-opacity:1;fill-rule:evenodd;stroke:#000000;stroke-width:1px;stroke-linecap:butt;stroke-linejoin:miter;stroke-opacity:1"
     id="path2342" />
  <path
     d="M 184.97885,330.94063 A 27.5,27.5 0 1 1 184.99031,329.13229"
     transform="matrix(9.181518e-2,0,0,9.169656e-2,325.4582,177.4517)"
     style="fill:#000000;fill-opacity:1;fill-rule:evenodd;stroke:#000000;stroke-width:1px;stroke-linecap:butt;stroke-linejoin:miter;stroke-opacity:1"
     id="path2344" />
  <path
     d="M 184.97885,330.94063 A 27.5,27.5 0 1 1 184.99031,329.13229"
     transform="matrix(9.181518e-2,0,0,9.169656e-2,369.2924,177.4517)"
     style="fill:#000000;fill-opacity:1;fill-rule:evenodd;stroke:#000000;stroke-width:1px;stroke-linecap:butt;stroke-linejoin:miter;stroke-opacity:1"
     id="path2346" />
  <path
     d="M 184.97885,330.94063 A 27.5,27.5 0 1 1 184.99031,329.13229"
     transform="matrix(9.181518e-2,0,0,9.169656e-2,413.1266,177.4517)"
     style="fill:#000000;fill-opacity:1;fill-rule:evenodd;stroke:#000000;stroke-width:1px;stroke-linecap:butt;stroke-linejoin:miter;stroke-opacity:1"
     id="path2348" />
  <path
     d="M 184.97885,330.94063 A 27.5,27.5 0 1 1 184.99031,329.13229"
     transform="matrix(9.181518e-2,0,0,9.169656e-2,456.9608,177.4517)"
     style="fill:#000000;fill-opacity:1;fill-rule:evenodd;stroke:#000000;stroke-width:1px;stroke-linecap:butt;stroke-linejoin:miter;stroke-opacity:1"
     id="path2350" />
  <path
     d="M 184.97885,330.94063 A 27.5,27.5 0 1 1 184.99031,329.13229"
     transform="matrix(9.181518e-2,0,0,9.169656e-2,500.7949,177.4517)"
     style="fill:#000000;fill-opacity:1;fill-rule:evenodd;stroke:#000000;stroke-width:1px;stroke-linecap:butt;stroke-linejoin:miter;stroke-opacity:1"
     id="path2352" />
  <path
     d="M 184.97885,330.94063 A 27.5,27.5 0 1 1 184.99031,329.13229"
     transform="matrix(9.181518e-2,0,0,9.169656e-2,544.6291,177.4517)"
     style="fill:#000000;fill-opacity:1;fill-rule:evenodd;stroke:#000000;stroke-width:1px;stroke-linecap:butt;stroke-linejoin:miter;stroke-opacity:1"
     id="path2354" />
  <path
     d="M 184.97885,330.94063 A 27.5,27.5 0 1 1 184.99031,329.13229"
     transform="matrix(9.181518e-2,0,0,9.169656e-2,18.61884,221.2859)"
     style="fill:#000000;fill-opacity:1;fill-rule:evenodd;stroke:#000000;stroke-width:1px;stroke-linecap:butt;stroke-linejoin:miter;stroke-opacity:1"
     id="path2356" />
  <path
     d="M 184.97885,330.94063 A 27.5,27.5 0 1 1 184.99031,329.13229"
     transform="matrix(9.181518e-2,0,0,9.169656e-2,62.45306,221.2859)"
     style="fill:#000000;fill-opacity:1;fill-rule:evenodd;stroke:#000000;stroke-width:1px;stroke-linecap:butt;stroke-linejoin:miter;stroke-opacity:1"
     id="path2358" />
  <path
     d="M 184.97885,330.94063 A 27.5,27.5 0 1 1 184.99031,329.13229"
     transform="matrix(9.181518e-2,0,0,9.169656e-2,106.2873,221.2859)"
     style="fill:#000000;fill-opacity:1;fill-rule:evenodd;stroke:#000000;stroke-width:1px;stroke-linecap:butt;stroke-linejoin:miter;stroke-opacity:1"
     id="path2360" />
  <path
     d="M 184.97885,330.94063 A 27.5,27.5 0 1 1 184.99031,329.13229"
     transform="matrix(9.181518e-2,0,0,9.169656e-2,150.1214,221.2859)"
     style="fill:#000000;fill-opacity:1;fill-rule:evenodd;stroke:#000000;stroke-width:1px;stroke-linecap:butt;stroke-linejoin:miter;stroke-opacity:1"
     id="path2362" />
  <path
     d="M 184.97885,330.94063 A 27.5,27.5 0 1 1 184.99031,329.13229"
     transform="matrix(9.181518e-2,0,0,9.169656e-2,193.9556,221.2859)"
     style="fill:#000000;fill-opacity:1;fill-rule:evenodd;stroke:#000000;stroke-width:1px;stroke-linecap:butt;stroke-linejoin:miter;stroke-opacity:1"
     id="path2364" />
  <path
     d="M 184.97885,330.94063 A 27.5,27.5 0 1 1 184.99031,329.13229"
     transform="matrix(9.181518e-2,0,0,9.169656e-2,237.7898,221.2859)"
     style="fill:#000000;fill-opacity:1;fill-rule:evenodd;stroke:#000000;stroke-width:1px;stroke-linecap:butt;stroke-linejoin:miter;stroke-opacity:1"
     id="path2366" />
  <path
     d="M 184.97885,330.94063 A 27.5,27.5 0 1 1 184.99031,329.13229"
     transform="matrix(9.181518e-2,0,0,9.169656e-2,281.624,221.2859)"
     style="fill:#000000;fill-opacity:1;fill-rule:evenodd;stroke:#000000;stroke-width:1px;stroke-linecap:butt;stroke-linejoin:miter;stroke-opacity:1"
     id="path2368" />
  <path
     d="M 184.97885,330.94063 A 27.5,27.5 0 1 1 184.99031,329.13229"
     transform="matrix(9.181518e-2,0,0,9.169656e-2,325.4582,221.2859)"
     style="fill:#000000;fill-opacity:1;fill-rule:evenodd;stroke:#000000;stroke-width:1px;stroke-linecap:butt;stroke-linejoin:miter;stroke-opacity:1"
     id="path2370" />
  <path
     d="M 184.97885,330.94063 A 27.5,27.5 0 1 1 184.99031,329.13229"
     transform="matrix(9.181518e-2,0,0,9.169656e-2,369.2924,221.2859)"
     style="fill:#000000;fill-opacity:1;fill-rule:evenodd;stroke:#000000;stroke-width:1px;stroke-linecap:butt;stroke-linejoin:miter;stroke-opacity:1"
     id="path2372" />
  <path
     d="M 184.97885,330.94063 A 27.5,27.5 0 1 1 184.99031,329.13229"
     transform="matrix(9.181518e-2,0,0,9.169656e-2,413.1266,221.2859)"
     style="fill:#000000;fill-opacity:1;fill-rule:evenodd;stroke:#000000;stroke-width:1px;stroke-linecap:butt;stroke-linejoin:miter;stroke-opacity:1"
     id="path2374" />
  <path
     d="M 184.97885,330.94063 A 27.5,27.5 0 1 1 184.99031,329.13229"
     transform="matrix(9.181518e-2,0,0,9.169656e-2,456.9608,221.2859)"
     style="fill:#000000;fill-opacity:1;fill-rule:evenodd;stroke:#000000;stroke-width:1px;stroke-linecap:butt;stroke-linejoin:miter;stroke-opacity:1"
     id="path2376" />
  <path
     d="M 184.97885,330.94063 A 27.5,27.5 0 1 1 184.99031,329.13229"
     transform="matrix(9.181518e-2,0,0,9.169656e-2,500.7949,221.2859)"
     style="fill:#000000;fill-opacity:1;fill-rule:evenodd;stroke:#000000;stroke-width:1px;stroke-linecap:butt;stroke-linejoin:miter;stroke-opacity:1"
     id="path2378" />
  <path
     d="M 184.97885,330.94063 A 27.5,27.5 0 1 1 184.99031,329.13229"
     transform="matrix(9.181518e-2,0,0,9.169656e-2,544.6291,221.2859)"
     style="fill:#000000;fill-opacity:1;fill-rule:evenodd;stroke:#000000;stroke-width:1px;stroke-linecap:butt;stroke-linejoin:miter;stroke-opacity:1"
     id="path2380" />
  <path
     d="M 184.97885,330.94063 A 27.5,27.5 0 1 1 184.99031,329.13229"
     transform="matrix(9.181518e-2,0,0,9.169656e-2,18.61884,265.1201)"
     style="fill:#000000;fill-opacity:1;fill-rule:evenodd;stroke:#000000;stroke-width:1px;stroke-linecap:butt;stroke-linejoin:miter;stroke-opacity:1"
     id="path2382" />
  <path
     d="M 184.97885,330.94063 A 27.5,27.5 0 1 1 184.99031,329.13229"
     transform="matrix(9.181518e-2,0,0,9.169656e-2,62.45306,265.1201)"
     style="fill:#000000;fill-opacity:1;fill-rule:evenodd;stroke:#000000;stroke-width:1px;stroke-linecap:butt;stroke-linejoin:miter;stroke-opacity:1"
     id="path2384" />
  <path
     d="M 184.97885,330.94063 A 27.5,27.5 0 1 1 184.99031,329.13229"
     transform="matrix(9.181518e-2,0,0,9.169656e-2,106.2873,265.1201)"
     style="fill:#000000;fill-opacity:1;fill-rule:evenodd;stroke:#000000;stroke-width:1px;stroke-linecap:butt;stroke-linejoin:miter;stroke-opacity:1"
     id="path2386" />
  <path
     d="M 184.97885,330.94063 A 27.5,27.5 0 1 1 184.99031,329.13229"
     transform="matrix(9.181518e-2,0,0,9.169656e-2,150.1214,265.1201)"
     style="fill:#000000;fill-opacity:1;fill-rule:evenodd;stroke:#000000;stroke-width:1px;stroke-linecap:butt;stroke-linejoin:miter;stroke-opacity:1"
     id="path2388" />
  <path
     d="M 184.97885,330.94063 A 27.5,27.5 0 1 1 184.99031,329.13229"
     transform="matrix(9.181518e-2,0,0,9.169656e-2,193.9556,265.1201)"
     style="fill:#000000;fill-opacity:1;fill-rule:evenodd;stroke:#000000;stroke-width:1px;stroke-linecap:butt;stroke-linejoin:miter;stroke-opacity:1"
     id="path2390" />
  <path
     d="M 184.97885,330.94063 A 27.5,27.5 0 1 1 184.99031,329.13229"
     transform="matrix(9.181518e-2,0,0,9.169656e-2,237.7898,265.1201)"
     style="fill:#000000;fill-opacity:1;fill-rule:evenodd;stroke:#000000;stroke-width:1px;stroke-linecap:butt;stroke-linejoin:miter;stroke-opacity:1"
     id="path2392" />
  <path
     d="M 184.97885,330.94063 A 27.5,27.5 0 1 1 184.99031,329.13229"
     transform="matrix(9.181518e-2,0,0,9.169656e-2,281.624,265.1201)"
     style="fill:#000000;fill-opacity:1;fill-rule:evenodd;stroke:#000000;stroke-width:1px;stroke-linecap:butt;stroke-linejoin:miter;stroke-opacity:1"
     id="path2394" />
  <path
     d="M 184.97885,330.94063 A 27.5,27.5 0 1 1 184.99031,329.13229"
     transform="matrix(9.181518e-2,0,0,9.169656e-2,325.4582,265.1201)"
     style="fill:#000000;fill-opacity:1;fill-rule:evenodd;stroke:#000000;stroke-width:1px;stroke-linecap:butt;stroke-linejoin:miter;stroke-opacity:1"
     id="path2396" />
  <path
     d="M 184.97885,330.94063 A 27.5,27.5 0 1 1 184.99031,329.13229"
     transform="matrix(9.181518e-2,0,0,9.169656e-2,369.2924,265.1201)"
     style="fill:#000000;fill-opacity:1;fill-rule:evenodd;stroke:#000000;stroke-width:1px;stroke-linecap:butt;stroke-linejoin:miter;stroke-opacity:1"
     id="path2398" />
  <path
     d="M 184.97885,330.94063 A 27.5,27.5 0 1 1 184.99031,329.13229"
     transform="matrix(9.181518e-2,0,0,9.169656e-2,413.1266,265.1201)"
     style="fill:#000000;fill-opacity:1;fill-rule:evenodd;stroke:#000000;stroke-width:1px;stroke-linecap:butt;stroke-linejoin:miter;stroke-opacity:1"
     id="path2400" />
  <path
     d="M 184.97885,330.94063 A 27.5,27.5 0 1 1 184.99031,329.13229"
     transform="matrix(9.181518e-2,0,0,9.169656e-2,456.9608,265.1201)"
     style="fill:#000000;fill-opacity:1;fill-rule:evenodd;stroke:#000000;stroke-width:1px;stroke-linecap:butt;stroke-linejoin:miter;stroke-opacity:1"
     id="path2402" />
  <path
     d="M 184.97885,330.94063 A 27.5,27.5 0 1 1 184.99031,329.13229"
     transform="matrix(9.181518e-2,0,0,9.169656e-2,500.7949,265.1201)"
     style="fill:#000000;fill-opacity:1;fill-rule:evenodd;stroke:#000000;stroke-width:1px;stroke-linecap:butt;stroke-linejoin:miter;stroke-opacity:1"
     id="path2404" />
  <path
     d="M 184.97885,330.94063 A 27.5,27.5 0 1 1 184.99031,329.13229"
     transform="matrix(9.181518e-2,0,0,9.169656e-2,544.6291,265.1201)"
     style="fill:#000000;fill-opacity:1;fill-rule:evenodd;stroke:#000000;stroke-width:1px;stroke-linecap:butt;stroke-linejoin:miter;stroke-opacity:1"
     id="path2406" />
  <path
     d="M 184.97885,330.94063 A 27.5,27.5 0 1 1 184.99031,329.13229"
     transform="matrix(9.181518e-2,0,0,9.169656e-2,18.61884,308.9543)"
     style="fill:#000000;fill-opacity:1;fill-rule:evenodd;stroke:#000000;stroke-width:1px;stroke-linecap:butt;stroke-linejoin:miter;stroke-opacity:1"
     id="path2408" />
  <path
     d="M 184.97885,330.94063 A 27.5,27.5 0 1 1 184.99031,329.13229"
     transform="matrix(9.181518e-2,0,0,9.169656e-2,62.45306,308.9543)"
     style="fill:#000000;fill-opacity:1;fill-rule:evenodd;stroke:#000000;stroke-width:1px;stroke-linecap:butt;stroke-linejoin:miter;stroke-opacity:1"
     id="path2410" />
  <path
     d="M 184.97885,330.94063 A 27.5,27.5 0 1 1 184.99031,329.13229"
     transform="matrix(9.181518e-2,0,0,9.169656e-2,106.2873,308.9543)"
     style="fill:#000000;fill-opacity:1;fill-rule:evenodd;stroke:#000000;stroke-width:1px;stroke-linecap:butt;stroke-linejoin:miter;stroke-opacity:1"
     id="path2412" />
  <path
     d="M 184.97885,330.94063 A 27.5,27.5 0 1 1 184.99031,329.13229"
     transform="matrix(9.181518e-2,0,0,9.169656e-2,150.1214,308.9543)"
     style="fill:#000000;fill-opacity:1;fill-rule:evenodd;stroke:#000000;stroke-width:1px;stroke-linecap:butt;stroke-linejoin:miter;stroke-opacity:1"
     id="path2414" />
  <path
     d="M 184.97885,330.94063 A 27.5,27.5 0 1 1 184.99031,329.13229"
     transform="matrix(9.181518e-2,0,0,9.169656e-2,193.9556,308.9543)"
     style="fill:#000000;fill-opacity:1;fill-rule:evenodd;stroke:#000000;stroke-width:1px;stroke-linecap:butt;stroke-linejoin:miter;stroke-opacity:1"
     id="path2416" />
  <path
     d="M 184.97885,330.94063 A 27.5,27.5 0 1 1 184.99031,329.13229"
     transform="matrix(9.181518e-2,0,0,9.169656e-2,237.7898,308.9543)"
     style="fill:#000000;fill-opacity:1;fill-rule:evenodd;stroke:#000000;stroke-width:1px;stroke-linecap:butt;stroke-linejoin:miter;stroke-opacity:1"
     id="path2418" />
  <path
     d="M 184.97885,330.94063 A 27.5,27.5 0 1 1 184.99031,329.13229"
     transform="matrix(9.181518e-2,0,0,9.169656e-2,281.624,308.9543)"
     style="fill:#000000;fill-opacity:1;fill-rule:evenodd;stroke:#000000;stroke-width:1px;stroke-linecap:butt;stroke-linejoin:miter;stroke-opacity:1"
     id="path2420" />
  <path
     d="M 184.97885,330.94063 A 27.5,27.5 0 1 1 184.99031,329.13229"
     transform="matrix(9.181518e-2,0,0,9.169656e-2,325.4582,308.9543)"
     style="fill:#000000;fill-opacity:1;fill-rule:evenodd;stroke:#000000;stroke-width:1px;stroke-linecap:butt;stroke-linejoin:miter;stroke-opacity:1"
     id="path2422" />
  <path
     d="M 184.97885,330.94063 A 27.5,27.5 0 1 1 184.99031,329.13229"
     transform="matrix(9.181518e-2,0,0,9.169656e-2,369.2924,308.9543)"
     style="fill:#000000;fill-opacity:1;fill-rule:evenodd;stroke:#000000;stroke-width:1px;stroke-linecap:butt;stroke-linejoin:miter;stroke-opacity:1"
     id="path2424" />
  <path
     d="M 184.97885,330.94063 A 27.5,27.5 0 1 1 184.99031,329.13229"
     transform="matrix(9.181518e-2,0,0,9.169656e-2,413.1266,308.9543)"
     style="fill:#000000;fill-opacity:1;fill-rule:evenodd;stroke:#000000;stroke-width:1px;stroke-linecap:butt;stroke-linejoin:miter;stroke-opacity:1"
     id="path2426" />
  <path
     d="M 184.97885,330.94063 A 27.5,27.5 0 1 1 184.99031,329.13229"
     transform="matrix(9.181518e-2,0,0,9.169656e-2,456.9608,308.9543)"
     style="fill:#000000;fill-opacity:1;fill-rule:evenodd;stroke:#000000;stroke-width:1px;stroke-linecap:butt;stroke-linejoin:miter;stroke-opacity:1"
     id="path2428" />
  <path
     d="M 184.97885,330.94063 A 27.5,27.5 0 1 1 184.99031,329.13229"
     transform="matrix(9.181518e-2,0,0,9.169656e-2,500.7949,308.9543)"
     style="fill:#000000;fill-opacity:1;fill-rule:evenodd;stroke:#000000;stroke-width:1px;stroke-linecap:butt;stroke-linejoin:miter;stroke-opacity:1"
     id="path2430" />
  <path
     d="M 184.97885,330.94063 A 27.5,27.5 0 1 1 184.99031,329.13229"
     transform="matrix(9.181518e-2,0,0,9.169656e-2,544.6291,308.9543)"
     style="fill:#000000;fill-opacity:1;fill-rule:evenodd;stroke:#000000;stroke-width:1px;stroke-linecap:butt;stroke-linejoin:miter;stroke-opacity:1"
     id="path2432" />
  <path
     d="M 184.97885,330.94063 A 27.5,27.5 0 1 1 184.99031,329.13229"
     transform="matrix(9.181518e-2,0,0,9.169656e-2,18.61884,352.7885)"
     style="fill:#000000;fill-opacity:1;fill-rule:evenodd;stroke:#000000;stroke-width:1px;stroke-linecap:butt;stroke-linejoin:miter;stroke-opacity:1"
     id="path2434" />
  <path
     d="M 184.97885,330.94063 A 27.5,27.5 0 1 1 184.99031,329.13229"
     transform="matrix(9.181518e-2,0,0,9.169656e-2,62.45306,352.7885)"
     style="fill:#000000;fill-opacity:1;fill-rule:evenodd;stroke:#000000;stroke-width:1px;stroke-linecap:butt;stroke-linejoin:miter;stroke-opacity:1"
     id="path2436" />
  <path
     d="M 184.97885,330.94063 A 27.5,27.5 0 1 1 184.99031,329.13229"
     transform="matrix(9.181518e-2,0,0,9.169656e-2,106.2873,352.7885)"
     style="fill:#000000;fill-opacity:1;fill-rule:evenodd;stroke:#000000;stroke-width:1px;stroke-linecap:butt;stroke-linejoin:miter;stroke-opacity:1"
     id="path2438" />
  <path
     d="M 184.97885,330.94063 A 27.5,27.5 0 1 1 184.99031,329.13229"
     transform="matrix(9.181518e-2,0,0,9.169656e-2,150.1214,352.7885)"
     style="fill:#000000;fill-opacity:1;fill-rule:evenodd;stroke:#000000;stroke-width:1px;stroke-linecap:butt;stroke-linejoin:miter;stroke-opacity:1"
     id="path2440" />
  <path
     d="M 184.97885,330.94063 A 27.5,27.5 0 1 1 184.99031,329.13229"
     transform="matrix(9.181518e-2,0,0,9.169656e-2,193.9556,352.7885)"
     style="fill:#000000;fill-opacity:1;fill-rule:evenodd;stroke:#000000;stroke-width:1px;stroke-linecap:butt;stroke-linejoin:miter;stroke-opacity:1"
     id="path2442" />
  <path
     d="M 184.97885,330.94063 A 27.5,27.5 0 1 1 184.99031,329.13229"
     transform="matrix(9.181518e-2,0,0,9.169656e-2,237.7898,352.7885)"
     style="fill:#000000;fill-opacity:1;fill-rule:evenodd;stroke:#000000;stroke-width:1px;stroke-linecap:butt;stroke-linejoin:miter;stroke-opacity:1"
     id="path2444" />
  <path
     d="M 184.97885,330.94063 A 27.5,27.5 0 1 1 184.99031,329.13229"
     transform="matrix(9.181518e-2,0,0,9.169656e-2,281.624,352.7885)"
     style="fill:#000000;fill-opacity:1;fill-rule:evenodd;stroke:#000000;stroke-width:1px;stroke-linecap:butt;stroke-linejoin:miter;stroke-opacity:1"
     id="path2446" />
  <path
     d="M 184.97885,330.94063 A 27.5,27.5 0 1 1 184.99031,329.13229"
     transform="matrix(9.181518e-2,0,0,9.169656e-2,325.4582,352.7885)"
     style="fill:#000000;fill-opacity:1;fill-rule:evenodd;stroke:#000000;stroke-width:1px;stroke-linecap:butt;stroke-linejoin:miter;stroke-opacity:1"
     id="path2448" />
  <path
     d="M 184.97885,330.94063 A 27.5,27.5 0 1 1 184.99031,329.13229"
     transform="matrix(9.181518e-2,0,0,9.169656e-2,369.2924,352.7885)"
     style="fill:#000000;fill-opacity:1;fill-rule:evenodd;stroke:#000000;stroke-width:1px;stroke-linecap:butt;stroke-linejoin:miter;stroke-opacity:1"
     id="path2450" />
  <path
     d="M 184.97885,330.94063 A 27.5,27.5 0 1 1 184.99031,329.13229"
     transform="matrix(9.181518e-2,0,0,9.169656e-2,413.1266,352.7885)"
     style="fill:#000000;fill-opacity:1;fill-rule:evenodd;stroke:#000000;stroke-width:1px;stroke-linecap:butt;stroke-linejoin:miter;stroke-opacity:1"
     id="path2452" />
  <path
     d="M 184.97885,330.94063 A 27.5,27.5 0 1 1 184.99031,329.13229"
     transform="matrix(9.181518e-2,0,0,9.169656e-2,456.9608,352.7885)"
     style="fill:#000000;fill-opacity:1;fill-rule:evenodd;stroke:#000000;stroke-width:1px;stroke-linecap:butt;stroke-linejoin:miter;stroke-opacity:1"
     id="path2454" />
  <path
     d="M 184.97885,330.94063 A 27.5,27.5 0 1 1 184.99031,329.13229"
     transform="matrix(9.181518e-2,0,0,9.169656e-2,500.7949,352.7885)"
     style="fill:#000000;fill-opacity:1;fill-rule:evenodd;stroke:#000000;stroke-width:1px;stroke-linecap:butt;stroke-linejoin:miter;stroke-opacity:1"
     id="path2456" />
  <path
     d="M 184.97885,330.94063 A 27.5,27.5 0 1 1 184.99031,329.13229"
     transform="matrix(9.181518e-2,0,0,9.169656e-2,544.6291,352.7885)"
     style="fill:#000000;fill-opacity:1;fill-rule:evenodd;stroke:#000000;stroke-width:1px;stroke-linecap:butt;stroke-linejoin:miter;stroke-opacity:1"
     id="path2458" />
  <path
     d="M 184.97885,330.94063 A 27.5,27.5 0 1 1 184.99031,329.13229"
     transform="matrix(9.181518e-2,0,0,9.169656e-2,18.61884,396.6227)"
     style="fill:#000000;fill-opacity:1;fill-rule:evenodd;stroke:#000000;stroke-width:1px;stroke-linecap:butt;stroke-linejoin:miter;stroke-opacity:1"
     id="path2460" />
  <path
     d="M 184.97885,330.94063 A 27.5,27.5 0 1 1 184.99031,329.13229"
     transform="matrix(9.181518e-2,0,0,9.169656e-2,62.45306,396.6227)"
     style="fill:#000000;fill-opacity:1;fill-rule:evenodd;stroke:#000000;stroke-width:1px;stroke-linecap:butt;stroke-linejoin:miter;stroke-opacity:1"
     id="path2462" />
  <path
     d="M 184.97885,330.94063 A 27.5,27.5 0 1 1 184.99031,329.13229"
     transform="matrix(9.181518e-2,0,0,9.169656e-2,106.2873,396.6227)"
     style="fill:#000000;fill-opacity:1;fill-rule:evenodd;stroke:#000000;stroke-width:1px;stroke-linecap:butt;stroke-linejoin:miter;stroke-opacity:1"
     id="path2464" />
  <path
     d="M 184.97885,330.94063 A 27.5,27.5 0 1 1 184.99031,329.13229"
     transform="matrix(9.181518e-2,0,0,9.169656e-2,150.1214,396.6227)"
     style="fill:#000000;fill-opacity:1;fill-rule:evenodd;stroke:#000000;stroke-width:1px;stroke-linecap:butt;stroke-linejoin:miter;stroke-opacity:1"
     id="path2466" />
  <path
     d="M 184.97885,330.94063 A 27.5,27.5 0 1 1 184.99031,329.13229"
     transform="matrix(9.181518e-2,0,0,9.169656e-2,193.9556,396.6227)"
     style="fill:#000000;fill-opacity:1;fill-rule:evenodd;stroke:#000000;stroke-width:1px;stroke-linecap:butt;stroke-linejoin:miter;stroke-opacity:1"
     id="path2468" />
  <path
     d="M 184.97885,330.94063 A 27.5,27.5 0 1 1 184.99031,329.13229"
     transform="matrix(9.181518e-2,0,0,9.169656e-2,237.7898,396.6227)"
     style="fill:#000000;fill-opacity:1;fill-rule:evenodd;stroke:#000000;stroke-width:1px;stroke-linecap:butt;stroke-linejoin:miter;stroke-opacity:1"
     id="path2470" />
  <path
     d="M 184.97885,330.94063 A 27.5,27.5 0 1 1 184.99031,329.13229"
     transform="matrix(9.181518e-2,0,0,9.169656e-2,281.624,396.6227)"
     style="fill:#000000;fill-opacity:1;fill-rule:evenodd;stroke:#000000;stroke-width:1px;stroke-linecap:butt;stroke-linejoin:miter;stroke-opacity:1"
     id="path2472" />
  <path
     d="M 184.97885,330.94063 A 27.5,27.5 0 1 1 184.99031,329.13229"
     transform="matrix(9.181518e-2,0,0,9.169656e-2,325.4582,396.6227)"
     style="fill:#000000;fill-opacity:1;fill-rule:evenodd;stroke:#000000;stroke-width:1px;stroke-linecap:butt;stroke-linejoin:miter;stroke-opacity:1"
     id="path2474" />
  <path
     d="M 184.97885,330.94063 A 27.5,27.5 0 1 1 184.99031,329.13229"
     transform="matrix(9.181518e-2,0,0,9.169656e-2,369.2924,396.6227)"
     style="fill:#000000;fill-opacity:1;fill-rule:evenodd;stroke:#000000;stroke-width:1px;stroke-linecap:butt;stroke-linejoin:miter;stroke-opacity:1"
     id="path2476" />
  <path
     d="M 184.97885,330.94063 A 27.5,27.5 0 1 1 184.99031,329.13229"
     transform="matrix(9.181518e-2,0,0,9.169656e-2,413.1266,396.6227)"
     style="fill:#000000;fill-opacity:1;fill-rule:evenodd;stroke:#000000;stroke-width:1px;stroke-linecap:butt;stroke-linejoin:miter;stroke-opacity:1"
     id="path2478" />
  <path
     d="M 184.97885,330.94063 A 27.5,27.5 0 1 1 184.99031,329.13229"
     transform="matrix(9.181518e-2,0,0,9.169656e-2,456.9608,396.6227)"
     style="fill:#000000;fill-opacity:1;fill-rule:evenodd;stroke:#000000;stroke-width:1px;stroke-linecap:butt;stroke-linejoin:miter;stroke-opacity:1"
     id="path2480" />
  <path
     d="M 184.97885,330.94063 A 27.5,27.5 0 1 1 184.99031,329.13229"
     transform="matrix(9.181518e-2,0,0,9.169656e-2,500.7949,396.6227)"
     style="fill:#000000;fill-opacity:1;fill-rule:evenodd;stroke:#000000;stroke-width:1px;stroke-linecap:butt;stroke-linejoin:miter;stroke-opacity:1"
     id="path2482" />
  <path
     d="M 184.97885,330.94063 A 27.5,27.5 0 1 1 184.99031,329.13229"
     transform="matrix(9.181518e-2,0,0,9.169656e-2,544.6291,396.6227)"
     style="fill:#000000;fill-opacity:1;fill-rule:evenodd;stroke:#000000;stroke-width:1px;stroke-linecap:butt;stroke-linejoin:miter;stroke-opacity:1"
     id="path2484" />
  <path
     d="M 76.91393,383.03575 C 383.75324,383.03575 383.75324,383.03575 383.75324,383.03575 L 515.25581,207.699 L 427.58743,76.196435 L 339.91906,163.86481 L 164.5823,120.03063 L 76.91393,383.03575 z "
     style="fill:none;fill-opacity:0.75;fill-rule:evenodd;stroke:#000000;stroke-width:1.75336754px;stroke-linecap:butt;stroke-linejoin:miter;stroke-opacity:1"
     id="path2486" />
</svg>
